<svg xmlns="http://www.w3.org/2000/svg" xmlns:xlink="http://www.w3.org/1999/xlink" width="500" zoomAndPan="magnify" viewBox="0 0 375 374.999991" height="500" preserveAspectRatio="xMidYMid meet" version="1.0"><defs><g/></defs><rect x="-37.5" width="450" fill="#ffffff" y="-37.499999" height="449.999989" fill-opacity="1"/><rect x="-37.5" width="450" fill="#181818" y="-37.499999" height="449.999989" fill-opacity="1"/><g fill="#39d5ff" fill-opacity="1"><g transform="translate(176.478027, 253.273531)"><g><path d="M 138.703125 -49.3125 C 137.898438 -49.3125 137.09375 -48.421875 136.28125 -46.640625 C 133.363281 -40.003906 130.203125 -33.8125 126.796875 -28.0625 C 123.398438 -22.3125 119.515625 -17.328125 115.140625 -13.109375 C 110.773438 -8.898438 105.914062 -5.617188 100.5625 -3.265625 C 95.21875 -0.921875 89.3125 0.25 82.84375 0.25 C 68.101562 0.25 57.171875 -5.5 50.046875 -17 C 42.921875 -28.5 39.359375 -45.34375 39.359375 -67.53125 L 39.359375 -94.734375 C 39.359375 -116.117188 43 -132.597656 50.28125 -144.171875 C 57.570312 -155.753906 68.828125 -161.546875 84.046875 -161.546875 C 90.367188 -161.546875 96.117188 -160.53125 101.296875 -158.5 C 106.484375 -156.476562 111.179688 -153.6875 115.390625 -150.125 C 119.597656 -146.5625 123.238281 -142.269531 126.3125 -137.25 C 129.394531 -132.226562 131.90625 -126.800781 133.84375 -120.96875 C 134.332031 -119.351562 134.898438 -118.546875 135.546875 -118.546875 C 136.359375 -118.546875 136.765625 -119.515625 136.765625 -121.453125 L 136.765625 -161.0625 C 136.765625 -162.519531 136.601562 -163.488281 136.28125 -163.96875 C 135.957031 -164.457031 135.472656 -164.703125 134.828125 -164.703125 C 134.015625 -164.703125 132.957031 -164.050781 131.65625 -162.75 L 122.1875 -153.046875 C 117.007812 -157.253906 111.179688 -160.453125 104.703125 -162.640625 C 98.222656 -164.828125 91.335938 -165.921875 84.046875 -165.921875 C 73.359375 -165.921875 63.4375 -163.488281 54.28125 -158.625 C 45.132812 -153.769531 37.203125 -147.375 30.484375 -139.4375 C 23.765625 -131.5 18.539062 -122.46875 14.8125 -112.34375 C 11.09375 -102.226562 9.234375 -91.988281 9.234375 -81.625 C 9.234375 -69.632812 11.378906 -58.414062 15.671875 -47.96875 C 19.960938 -37.53125 25.585938 -28.421875 32.546875 -20.640625 C 39.515625 -12.867188 47.367188 -6.71875 56.109375 -2.1875 C 64.859375 2.34375 73.769531 4.609375 82.84375 4.609375 C 90.445312 4.609375 97.726562 3.109375 104.6875 0.109375 C 111.65625 -2.878906 117.894531 -7.453125 123.40625 -13.609375 L 136.28125 0.484375 C 137.09375 1.296875 137.820312 1.703125 138.46875 1.703125 C 139.4375 1.703125 139.921875 1.132812 139.921875 0 L 139.921875 -46.890625 C 139.921875 -48.503906 139.515625 -49.3125 138.703125 -49.3125 Z M 138.703125 -49.3125 "/></g></g></g><g fill="#39d5ff" fill-opacity="1"><g transform="translate(38.704496, 257.573847)"><g><path d="M 134.328125 -132.03125 C 134.328125 -138.332031 132.875 -144 129.96875 -149.03125 C 127.070312 -154.070312 123.191406 -158.253906 118.328125 -161.578125 C 113.472656 -164.898438 107.890625 -167.457031 101.578125 -169.25 C 95.265625 -171.039062 88.695312 -171.9375 81.875 -171.9375 L 7.421875 -171.9375 L 7.421875 -167.84375 L 29.421875 -167.84375 L 29.421875 -4.09375 L 7.421875 -4.09375 L 7.421875 0 L 83.921875 0 C 101.660156 0 115.429688 -4.09375 125.234375 -12.28125 C 135.046875 -20.46875 139.953125 -31.8125 139.953125 -46.3125 C 139.953125 -53.8125 138.457031 -60.375 135.46875 -66 C 132.488281 -71.632812 128.78125 -76.410156 124.34375 -80.328125 C 119.914062 -84.253906 115.015625 -87.285156 109.640625 -89.421875 C 104.265625 -91.554688 99.273438 -92.878906 94.671875 -93.390625 C 100.296875 -94.410156 105.539062 -95.898438 110.40625 -97.859375 C 115.269531 -99.828125 119.445312 -102.390625 122.9375 -105.546875 C 126.4375 -108.703125 129.207031 -112.453125 131.25 -116.796875 C 133.300781 -121.148438 134.328125 -126.226562 134.328125 -132.03125 Z M 54.25 -94.921875 L 54.25 -167.84375 L 81.875 -167.84375 C 86.132812 -167.84375 89.96875 -167.285156 93.375 -166.171875 C 96.789062 -165.066406 99.691406 -163.191406 102.078125 -160.546875 C 104.472656 -157.910156 106.351562 -154.414062 107.71875 -150.0625 C 109.082031 -145.707031 109.765625 -140.378906 109.765625 -134.078125 L 109.765625 -129.984375 C 109.765625 -123.160156 109.082031 -117.488281 107.71875 -112.96875 C 106.351562 -108.445312 104.472656 -104.863281 102.078125 -102.21875 C 99.691406 -99.570312 96.75 -97.691406 93.25 -96.578125 C 89.757812 -95.472656 85.96875 -94.921875 81.875 -94.921875 Z M 54.25 -4.09375 L 54.25 -90.828125 L 81.875 -90.828125 C 93.644531 -90.828125 102.046875 -87.242188 107.078125 -80.078125 C 112.109375 -72.921875 114.625 -62.6875 114.625 -49.375 L 114.625 -43.234375 C 114.625 -30.785156 112.234375 -21.148438 107.453125 -14.328125 C 102.679688 -7.503906 94.15625 -4.09375 81.875 -4.09375 Z M 54.25 -4.09375 "/></g></g></g></svg>